{
  "accessors": [
    {
      "bufferView": 2,
      "componentType": 5126,
      "count": 65532,
      "max": [
        0.49183699488639832,
        6.3369441032409668,
        0.30630400776863098
      ],
      "min": [
        -0.60555702447891235,
        5.9675889015197754,
        -1.2333760261535645
      ],
      "type": "VEC3"
    },
    {
      "bufferView": 2,
      "byteOffset": 786384,
      "componentType": 5126,
      "count": 65532,
      "max": [
        0.9887586236000061,
        0.99985480308532715,
        0.88631933927536011
      ],
      "min": [
        -0.99660336971282959,
        -0.99999946355819702,
        -0.99928820133209229
      ],
      "type": "VEC3"
    },
    {
      "bufferView": 1,
      "componentType": 5126,
      "count": 65532,
      "max": [
        0.90111202001571655,
        0.90668898820877075
      ],
      "min": [
        0,
        0.00050099997315555811
      ],
      "type": "VEC2"
    },
    {
      "bufferView": 0,
      "componentType": 5125,
      "count": 366546,
      "max": [
        65531
      ],
      "min": [
        0
      ],
      "type": "SCALAR"
    },
    {
      "bufferView": 2,
      "byteOffset": 1572768,
      "componentType": 5126,
      "count": 65532,
      "max": [
        0.42056301236152649,
        6.4094610214233398,
        0.26569700241088867
      ],
      "min": [
        -0.6935420036315918,
        6.0591979026794434,
        -0.91553199291229248
      ],
      "type": "VEC3"
    },
    {
      "bufferView": 2,
      "byteOffset": 2359152,
      "componentType": 5126,
      "count": 65532,
      "max": [
        0.99121272563934326,
        0.99999964237213135,
        0.96186649799346924
      ],
      "min": [
        -0.97312045097351074,
        -0.99999868869781494,
        -0.87895244359970093
      ],
      "type": "VEC3"
    },
    {
      "bufferView": 1,
      "byteOffset": 524256,
      "componentType": 5126,
      "count": 65532,
      "max": [
        0.91052097082138062,
        0.79884797334671021
      ],
      "min": [
        0.015699999406933784,
        0
      ],
      "type": "VEC2"
    },
    {
      "bufferView": 0,
      "byteOffset": 1466184,
      "componentType": 5125,
      "count": 342417,
      "max": [
        65531
      ],
      "min": [
        0
      ],
      "type": "SCALAR"
    },
    {
      "bufferView": 2,
      "byteOffset": 3145536,
      "componentType": 5126,
      "count": 65532,
      "max": [
        0.46880000829696655,
        6.4094610214233398,
        0.32417199015617371
      ],
      "min": [
        -0.85339897871017456,
        5.9470829963684082,
        -0.6849219799041748
      ],
      "type": "VEC3"
    },
    {
      "bufferView": 2,
      "byteOffset": 3931920,
      "componentType": 5126,
      "count": 65532,
      "max": [
        0.99038529396057129,
        0.99997800588607788,
        0.99989062547683716
      ],
      "min": [
        -0.99801915884017944,
        -0.99998390674591064,
        -0.86730116605758667
      ],
      "type": "VEC3"
    },
    {
      "bufferView": 1,
      "byteOffset": 1048512,
      "componentType": 5126,
      "count": 65532,
      "max": [
        0.9329720139503479,
        0.9773399829864502
      ],
      "min": [
        0.00025499999173916876,
        0.079162001609802246
      ],
      "type": "VEC2"
    },
    {
      "bufferView": 0,
      "byteOffset": 2835852,
      "componentType": 5125,
      "count": 328605,
      "max": [
        65531
      ],
      "min": [
        0
      ],
      "type": "SCALAR"
    },
    {
      "bufferView": 2,
      "byteOffset": 4718304,
      "componentType": 5126,
      "count": 65532,
      "max": [
        0.63649499416351318,
        6.4038300514221191,
        0.6642029881477356
      ],
      "min": [
        -0.8535119891166687,
        5.8959121704101562,
        -0.22002999484539032
      ],
      "type": "VEC3"
    },
    {
      "bufferView": 2,
      "byteOffset": 5504688,
      "componentType": 5126,
      "count": 65532,
      "max": [
        0.9999043345451355,
        0.99999260902404785,
        0.96533823013305664
      ],
      "min": [
        -0.99801915884017944,
        -0.9999968409538269,
        -0.99667274951934814
      ],
      "type": "VEC3"
    },
    {
      "bufferView": 1,
      "byteOffset": 1572768,
      "componentType": 5126,
      "count": 65532,
      "max": [
        1,
        0.97580701112747192
      ],
      "min": [
        0.024072999134659767,
        0
      ],
      "type": "VEC2"
    },
    {
      "bufferView": 0,
      "byteOffset": 4150272,
      "componentType": 5125,
      "count": 330651,
      "max": [
        65531
      ],
      "min": [
        0
      ],
      "type": "SCALAR"
    },
    {
      "bufferView": 2,
      "byteOffset": 6291072,
      "componentType": 5126,
      "count": 65532,
      "max": [
        0.63616800308227539,
        6.3300838470458984,
        0.62809199094772339
      ],
      "min": [
        -0.87650597095489502,
        5.8967428207397461,
        -0.024390999227762222
      ],
      "type": "VEC3"
    },
    {
      "bufferView": 2,
      "byteOffset": 7077456,
      "componentType": 5126,
      "count": 65532,
      "max": [
        0.99921560287475586,
        0.99998265504837036,
        0.9997711181640625
      ],
      "min": [
        -0.99999731779098511,
        -0.99997466802597046,
        -0.99667274951934814
      ],
      "type": "VEC3"
    },
    {
      "bufferView": 1,
      "byteOffset": 2097024,
      "componentType": 5126,
      "count": 65532,
      "max": [
        0.97985100746154785,
        0.9770510196685791
      ],
      "min": [
        0.026220999658107758,
        0.00026999998954124749
      ],
      "type": "VEC2"
    },
    {
      "bufferView": 0,
      "byteOffset": 5472876,
      "componentType": 5125,
      "count": 321621,
      "max": [
        65531
      ],
      "min": [
        0
      ],
      "type": "SCALAR"
    },
    {
      "bufferView": 2,
      "byteOffset": 7863840,
      "componentType": 5126,
      "count": 15744,
      "max": [
        0.57471597194671631,
        6.1644821166992188,
        0.67047101259231567
      ],
      "min": [
        -0.85141599178314209,
        5.8961200714111328,
        -1.2315499782562256
      ],
      "type": "VEC3"
    },
    {
      "bufferView": 2,
      "byteOffset": 8052768,
      "componentType": 5126,
      "count": 15744,
      "max": [
        0.98298609256744385,
        0.99715077877044678,
        0.99852204322814941
      ],
      "min": [
        -0.99750566482543945,
        -0.99992495775222778,
        -0.98285520076751709
      ],
      "type": "VEC3"
    },
    {
      "bufferView": 1,
      "byteOffset": 2621280,
      "componentType": 5126,
      "count": 15744,
      "max": [
        0.86185002326965332,
        0.92414402961730957
      ],
      "min": [
        0.0016469999682158232,
        0.0031830000225454569
      ],
      "type": "VEC2"
    },
    {
      "bufferView": 0,
      "byteOffset": 6759360,
      "componentType": 5125,
      "count": 64338,
      "max": [
        15743
      ],
      "min": [
        0
      ],
      "type": "SCALAR"
    }
  ],
  "asset": {
    "extras": {
      "author": "Felipe Lopes Machado (https://sketchfab.com/felipelopesmachado.flm)",
      "license": "CC-BY-4.0 (http://creativecommons.org/licenses/by/4.0/)",
      "source": "https://sketchfab.com/3d-models/pri-megalodontooth-d2403dafecd8489cb0b2633baefda217",
      "title": "PRI_MegalodonTooth"
    },
    "generator": "Sketchfab-9.21.0",
    "version": "2.0"
  },
  "bufferViews": [
    {
      "buffer": 0,
      "byteLength": 7016712,
      "byteOffset": 0,
      "name": "floatBufferViews",
      "target": 34963
    },
    {
      "buffer": 0,
      "byteLength": 2747232,
      "byteOffset": 7016712,
      "byteStride": 8,
      "name": "floatBufferViews",
      "target": 34962
    },
    {
      "buffer": 0,
      "byteLength": 8241696,
      "byteOffset": 9763944,
      "byteStride": 12,
      "name": "floatBufferViews",
      "target": 34962
    }
  ],
  "buffers": [
    {
      "byteLength": 18005640,
      "uri": "scene.bin"
    }
  ],
  "materials": [
    {
      "doubleSided": true,
      "emissiveFactor": [
        0,
        0,
        0
      ],
      "name": "PRI_MegalodonTooth",
      "pbrMetallicRoughness": {
        "baseColorFactor": [
          1,
          1,
          1,
          1
        ],
        "metallicFactor": 0,
        "roughnessFactor": 0.59999999999999998
      }
    }
  ],
  "meshes": [
    {
      "primitives": [
        {
          "attributes": {
            "NORMAL": 1,
            "POSITION": 0,
            "TEXCOORD_0": 2
          },
          "indices": 3,
          "material": 0,
          "mode": 4
        }
      ]
    },
    {
      "primitives": [
        {
          "attributes": {
            "NORMAL": 5,
            "POSITION": 4,
            "TEXCOORD_0": 6
          },
          "indices": 7,
          "material": 0,
          "mode": 4
        }
      ]
    },
    {
      "primitives": [
        {
          "attributes": {
            "NORMAL": 9,
            "POSITION": 8,
            "TEXCOORD_0": 10
          },
          "indices": 11,
          "material": 0,
          "mode": 4
        }
      ]
    },
    {
      "primitives": [
        {
          "attributes": {
            "NORMAL": 13,
            "POSITION": 12,
            "TEXCOORD_0": 14
          },
          "indices": 15,
          "material": 0,
          "mode": 4
        }
      ]
    },
    {
      "primitives": [
        {
          "attributes": {
            "NORMAL": 17,
            "POSITION": 16,
            "TEXCOORD_0": 18
          },
          "indices": 19,
          "material": 0,
          "mode": 4
        }
      ]
    },
    {
      "primitives": [
        {
          "attributes": {
            "NORMAL": 21,
            "POSITION": 20,
            "TEXCOORD_0": 22
          },
          "indices": 23,
          "material": 0,
          "mode": 4
        }
      ]
    }
  ],
  "nodes": [
    {
      "children": [
        1
      ],
      "name": "RootNode (gltf orientation matrix)",
      "rotation": [
        -0.70710678118654746,
        -0,
        -0,
        0.70710678118654757
      ]
    },
    {
      "children": [
        2
      ],
      "name": "RootNode (model correction matrix)"
    },
    {
      "children": [
        3,
        4,
        5,
        6,
        7,
        8
      ],
      "name": "PRI_MegalodonTooth.obj.cleaner.materialmerger.gles"
    },
    {
      "mesh": 0,
      "name": ""
    },
    {
      "mesh": 1,
      "name": ""
    },
    {
      "mesh": 2,
      "name": ""
    },
    {
      "mesh": 3,
      "name": ""
    },
    {
      "mesh": 4,
      "name": ""
    },
    {
      "mesh": 5,
      "name": ""
    }
  ],
  "scene": 0,
  "scenes": [
    {
      "name": "OSG_Scene",
      "nodes": [
        0
      ]
    }
  ]
}

